# xmcd
# 
# Track frame offsets:
#     150
#     22078
#     38953
#     45911
#     67785
# 
# Disc length: 1128
# 
# Revision: 0
# Processed by: cddbd v1.5.2PL0 Copyright (c) Steve Scherf et al.
# Submitted via: fre:ac v1.0.27
# 
DISCID=35046605
DTITLE=小倉唯 - 永遠少年
DYEAR=2018
DGENRE=Anime
TTITLE0=永遠少年
TTITLE1=Love Me × Love Me
TTITLE2=永遠少年 (TV size)
TTITLE3=永遠少年 (off vocal ver)
TTITLE4=Love Me × Love Me (off vocal ver)
EXTD=
EXTT0=
EXTT1=
EXTT2=
EXTT3=
EXTT4=
PLAYORDER=
